<svg width="19" height="19" viewBox="0 0 257 165" xmlns="http://www.w3.org/2000/svg"><title>logo_fasterize_white</title><path d="M51.49 135c-4.138 0-7.49-3.358-7.49-7.5 0-4.134 3.354-7.5 7.49-7.5h49.506c-2.43-4.752-4.41-9.77-5.89-15h-74.6C16.36 105 13 101.642 13 97.5c0-4.134 3.36-7.5 7.507-7.5H120.51c4.136 0 7.49-3.366 7.49-7.5 0-4.142-3.352-7.5-7.49-7.5H36.49C32.362 75 29 71.642 29 67.5c0-4.134 3.354-7.5 7.492-7.5h58.613c1.48-5.23 3.46-10.248 5.89-15H61.5c-4.138 0-7.5-3.358-7.5-7.5 0-4.134 3.358-7.5 7.5-7.5h94.01c4.136 0 7.49-3.366 7.49-7.5 0-4.142-3.352-7.5-7.49-7.5h-24.017C127.357 15 124 11.642 124 7.5c0-4.134 3.355-7.5 7.493-7.5H174.5C220.063 0 257 36.937 257 82.5S220.063 165 174.5 165h-59.01c-4.137 0-7.49-3.358-7.49-7.5 0-4.134 3.354-7.5 7.49-7.5h14.002c4.147 0 7.508-3.366 7.508-7.5 0-4.142-3.354-7.5-7.508-7.5h-78zM82 7.5c0 4.142 3.365 7.5 7.503 7.5h11.994C105.64 15 109 11.634 109 7.5c0-4.142-3.365-7.5-7.503-7.5H89.503C85.36 0 82 3.366 82 7.5zM7.5 60C3.358 60 0 63.366 0 67.5 0 71.642 3.366 75 7.5 75c4.142 0 7.5-3.366 7.5-7.5 0-4.142-3.366-7.5-7.5-7.5zm78 90c-4.142 0-7.5 3.366-7.5 7.5 0 4.142 3.366 7.5 7.5 7.5 4.142 0 7.5-3.366 7.5-7.5 0-4.142-3.366-7.5-7.5-7.5zm56.5-27l14.198-58.213C159.403 51.65 172.964 41 186.478 41H214l-6.448 15.314c-.857 2.036-3.344 3.686-5.554 3.686h-19.996c-2.763 0-5.635 2.153-6.415 4.803L172 77h20l-3.702 12.34C187.028 93.57 182.422 97 178 97h-7.007c-1.653 0-3.34 1.29-3.772 2.894l-2.94 10.924c-1.812 6.728-8.93 12.182-15.887 12.182H142z" fill="#d3d3d3" fill-rule="evenodd"/><path fill="#d50b0b" stroke="#222" stroke-width="2" stroke-linejoin="round" d="M203.537 138.5c0-14.64 11.86-26.5 26.5-26.5s26.5 11.86 26.5 26.5-11.86 26.5-26.5 26.5-26.5-11.86-26.5-26.5z"/></svg>
